<?xml version="1.0" standalone="no"?>
<!DOCTYPE svg PUBLIC "-//W3C//DTD SVG 20010904//EN"
 "http://www.w3.org/TR/2001/REC-SVG-20010904/DTD/svg10.dtd">
<svg version="1.0" xmlns="http://www.w3.org/2000/svg"
 width="200.000000pt" height="200.000000pt" viewBox="0 0 200.000000 200.000000"
 preserveAspectRatio="xMidYMid meet">
<metadata>
Created by potrace 1.11, written by Peter Selinger 2001-2013
</metadata>
<g transform="translate(0.000000,200.000000) scale(0.100000,-0.100000)"
fill="#000000" stroke="none">
<path d="M954 1754 c-57 -26 -84 -64 -84 -117 0 -19 -32 -38 -205 -125 -184
-92 -208 -101 -221 -87 -9 8 -21 15 -27 16 -7 0 -21 2 -32 4 -39 8 -94 -15
-120 -50 -50 -65 -28 -161 46 -194 21 -10 52 -17 67 -16 24 1 35 -10 89 -92
l61 -93 -62 -92 c-57 -85 -64 -92 -96 -93 -71 -4 -127 -52 -132 -112 -9 -110
86 -179 185 -135 l43 19 202 -101 c177 -88 202 -104 202 -124 0 -13 7 -38 15
-56 52 -108 226 -80 242 40 l5 40 205 103 c124 62 208 99 212 92 4 -5 27 -15
52 -22 41 -11 50 -10 85 8 123 64 88 239 -49 247 -41 2 -44 5 -104 95 l-63 92
60 88 c56 84 81 108 101 96 5 -4 29 3 53 14 130 57 86 253 -54 247 -19 -1 -49
-9 -66 -18 -31 -15 -32 -15 -232 86 l-200 100 -5 41 c-4 29 -15 49 -41 72 -20
18 -44 33 -53 34 -10 0 -25 2 -34 4 -8 1 -29 -3 -45 -11z m78 -91 c25 -23 23
-50 -7 -69 -23 -15 -27 -15 -51 1 -21 13 -25 22 -19 43 11 44 44 55 77 25z
m-177 -170 c-78 -123 -182 -273 -190 -273 -5 0 -45 17 -87 37 -117 56 -115 60
105 170 100 51 184 92 186 92 2 1 -5 -11 -14 -26z m645 -178 c0 -15 -20 -29
-78 -58 -42 -21 -82 -37 -87 -37 -8 0 -191 264 -203 293 -2 4 80 -34 182 -85
150 -75 186 -97 186 -113z m-356 25 c58 -87 106 -162 106 -164 0 -3 -34 -22
-75 -43 -75 -37 -75 -37 -110 -20 -20 9 -49 17 -65 17 -16 0 -45 -8 -65 -17
-35 -17 -35 -17 -110 20 -41 21 -75 40 -75 42 0 3 48 77 107 165 105 159 106
160 143 160 37 0 38 -1 144 -160z m-731 -17 c10 -51 -63 -75 -85 -29 -13 31
-5 54 24 65 29 10 55 -5 61 -36z m1261 14 c7 -10 6 -24 -2 -41 -15 -33 -55
-35 -76 -4 -20 29 -20 34 4 58 22 22 56 16 74 -13z m-1112 -163 c29 -15 54
-28 56 -29 4 -3 -32 -65 -38 -65 -3 0 -14 15 -26 33 -11 17 -29 44 -38 60 -22
33 -21 33 46 1z m922 -1 c-9 -16 -27 -43 -38 -60 -12 -18 -23 -33 -26 -33 -6
0 -42 62 -38 65 9 7 104 54 112 55 4 0 0 -12 -10 -27z m-694 -113 c106 -54
106 -65 -5 -121 -46 -24 -86 -41 -88 -38 -2 2 -18 25 -36 51 l-32 47 33 51
c18 27 36 50 40 50 4 0 44 -18 88 -40z m548 -10 l32 -50 -32 -50 c-18 -27 -36
-50 -41 -50 -4 0 -43 18 -87 40 -105 53 -105 65 -2 119 42 22 82 40 87 40 6 1
25 -22 43 -49z m-302 -25 c20 -30 13 -51 -21 -67 -21 -9 -28 -8 -45 7 -26 24
-25 50 2 69 31 22 45 20 64 -9z m-433 -136 c10 -18 16 -32 15 -33 -2 -1 -27
-14 -57 -29 -29 -16 -55 -27 -57 -25 -4 4 69 118 76 118 3 0 13 -14 23 -31z
m859 -26 c20 -32 36 -59 34 -60 -2 -3 -97 42 -114 53 -5 3 31 64 38 64 3 0 22
-26 42 -57z m-465 7 c18 0 48 8 68 17 35 17 36 17 110 -20 41 -21 75 -40 75
-43 0 -2 -48 -76 -107 -164 -105 -158 -107 -160 -143 -160 -36 0 -38 2 -144
161 -59 89 -105 164 -101 167 3 4 39 23 78 42 71 35 72 36 102 18 17 -10 44
-18 62 -18z m-223 -238 c53 -79 96 -145 96 -148 0 -2 -83 38 -185 88 -223 112
-225 114 -102 174 45 23 85 39 89 35 3 -3 49 -70 102 -149z m724 53 c2 -17
-27 -35 -183 -112 -102 -51 -185 -90 -185 -88 0 3 45 72 100 154 l99 149 83
-41 c58 -29 84 -48 86 -62z m-1102 37 c24 -15 25 -50 3 -70 -44 -41 -109 24
-67 66 13 13 47 16 64 4z m1279 -26 c8 -24 6 -31 -13 -46 -38 -31 -92 2 -75
47 16 44 72 44 88 -1z m-646 -292 c18 -13 21 -22 16 -43 -11 -42 -50 -55 -79
-25 -21 21 -20 40 4 64 24 24 29 25 59 4z"/>
</g>
</svg>
